<svg xmlns="http://www.w3.org/2000/svg" width="1800" height="760" viewBox="0 0 1800 760" role="img" aria-labelledby="title desc">
  <title id="title">Table 1. Downstream Chinese Investment Exposure and China Import Shares</title>
  <desc id="desc">Reduced-form estimates for value and quantity shares, reporting full-sample and manufacturing-sector effects of downstream Chinese investment exposure.</desc>
  <rect width="1800" height="760" fill="#ffffff"/>
  <style>
    .title { font: 700 38px Georgia, "Times New Roman", serif; fill: #111; }
    .head { font: 700 21px Georgia, "Times New Roman", serif; fill: #222; }
    .subhead { font: 600 20px Georgia, "Times New Roman", serif; fill: #222; }
    .panel { font: italic 700 21px Georgia, "Times New Roman", serif; fill: #222; }
    .rowlabel { font: 20px Georgia, "Times New Roman", serif; fill: #222; }
    .cell { font: 20px Georgia, "Times New Roman", serif; fill: #222; text-anchor: middle; }
    .note { font: 18px Georgia, "Times New Roman", serif; fill: #222; }
    .rule { stroke: #333; stroke-width: 2; }
    .thin { stroke: #777; stroke-width: 1.3; }
  </style>

  <text x="900" y="56" class="title" text-anchor="middle">Table 1. Downstream Chinese Investment Exposure and China Import Shares</text>
  <line x1="40" y1="96" x2="1760" y2="96" class="rule"/>

  <text x="610" y="126" class="head" text-anchor="middle">Value share</text>
  <text x="1320" y="126" class="head" text-anchor="middle">Quantity share</text>
  <line x1="365" y1="140" x2="860" y2="140" class="thin"/>
  <line x1="990" y1="140" x2="1650" y2="140" class="thin"/>

  <text x="430" y="166" class="subhead" text-anchor="middle">(1)</text>
  <text x="665" y="166" class="subhead" text-anchor="middle">(2)</text>
  <text x="900" y="166" class="subhead" text-anchor="middle">(3)</text>
  <text x="1110" y="166" class="subhead" text-anchor="middle">(4)</text>
  <text x="1345" y="166" class="subhead" text-anchor="middle">(5)</text>
  <text x="1580" y="166" class="subhead" text-anchor="middle">(6)</text>

  <text x="55" y="194" class="rowlabel">Specification</text>
  <text x="430" y="194" class="rowlabel" text-anchor="middle">No direct-sector control</text>
  <text x="665" y="194" class="rowlabel" text-anchor="middle">Direct-sector control</text>
  <text x="900" y="194" class="rowlabel" text-anchor="middle">Drop direct-sector rows</text>
  <text x="1110" y="194" class="rowlabel" text-anchor="middle">No direct-sector control</text>
  <text x="1345" y="194" class="rowlabel" text-anchor="middle">Direct-sector control</text>
  <text x="1580" y="194" class="rowlabel" text-anchor="middle">Drop direct-sector rows</text>
  <line x1="40" y1="208" x2="1760" y2="208" class="rule"/>

  <text x="55" y="236" class="panel">Panel A. Full sample</text>
  <text x="55" y="264" class="rowlabel">Postᵢₜ × Treatedᵢ</text>
  <text x="430" y="262" class="cell">1.625***</text>
  <text x="665" y="262" class="cell">1.625***</text>
  <text x="900" y="262" class="cell">1.711***</text>
  <text x="1110" y="262" class="cell">1.386***</text>
  <text x="1345" y="262" class="cell">1.385***</text>
  <text x="1580" y="262" class="cell">1.437***</text>
  <text x="430" y="288" class="cell">(0.317)</text>
  <text x="665" y="288" class="cell">(0.317)</text>
  <text x="900" y="288" class="cell">(0.320)</text>
  <text x="1110" y="288" class="cell">(0.367)</text>
  <text x="1345" y="288" class="cell">(0.367)</text>
  <text x="1580" y="288" class="cell">(0.372)</text>
  <text x="55" y="316" class="rowlabel">Pretrend <tspan font-style="italic">p</tspan>-value</text>
  <text x="430" y="316" class="cell">0.054</text>
  <text x="665" y="316" class="cell">0.054</text>
  <text x="900" y="316" class="cell">0.082</text>
  <text x="1110" y="316" class="cell">0.340</text>
  <text x="1345" y="316" class="cell">0.342</text>
  <text x="1580" y="316" class="cell">0.362</text>
  <text x="55" y="344" class="rowlabel">Observations</text>
  <text x="430" y="344" class="cell">62,994</text>
  <text x="665" y="344" class="cell">62,994</text>
  <text x="900" y="344" class="cell">61,637</text>
  <text x="1110" y="344" class="cell">62,994</text>
  <text x="1345" y="344" class="cell">62,994</text>
  <text x="1580" y="344" class="cell">61,637</text>

  <text x="55" y="384" class="panel">Panel B. Manufacturing sectors</text>
  <text x="55" y="412" class="rowlabel">Postᵢₜ × Treatedᵢ</text>
  <text x="430" y="410" class="cell">2.302***</text>
  <text x="665" y="410" class="cell">2.303***</text>
  <text x="900" y="410" class="cell">2.311***</text>
  <text x="1110" y="410" class="cell">1.785***</text>
  <text x="1345" y="410" class="cell">1.786***</text>
  <text x="1580" y="410" class="cell">1.787***</text>
  <text x="430" y="436" class="cell">(0.379)</text>
  <text x="665" y="436" class="cell">(0.379)</text>
  <text x="900" y="436" class="cell">(0.379)</text>
  <text x="1110" y="436" class="cell">(0.432)</text>
  <text x="1345" y="436" class="cell">(0.432)</text>
  <text x="1580" y="436" class="cell">(0.433)</text>
  <text x="55" y="464" class="rowlabel">Pretrend <tspan font-style="italic">p</tspan>-value</text>
  <text x="430" y="464" class="cell">0.005</text>
  <text x="665" y="464" class="cell">0.005</text>
  <text x="900" y="464" class="cell">0.005</text>
  <text x="1110" y="464" class="cell">0.082</text>
  <text x="1345" y="464" class="cell">0.082</text>
  <text x="1580" y="464" class="cell">0.080</text>
  <text x="55" y="492" class="rowlabel">Observations</text>
  <text x="430" y="492" class="cell">42,109</text>
  <text x="665" y="492" class="cell">42,109</text>
  <text x="900" y="492" class="cell">42,083</text>
  <text x="1110" y="492" class="cell">42,109</text>
  <text x="1345" y="492" class="cell">42,109</text>
  <text x="1580" y="492" class="cell">42,083</text>
  <line x1="40" y1="512" x2="1760" y2="512" class="rule"/>

  <text x="55" y="540" class="rowlabel">Stack-entity FE</text>
  <text x="430" y="540" class="cell">Yes</text><text x="665" y="540" class="cell">Yes</text><text x="900" y="540" class="cell">Yes</text>
  <text x="1110" y="540" class="cell">Yes</text><text x="1345" y="540" class="cell">Yes</text><text x="1580" y="540" class="cell">Yes</text>
  <text x="55" y="568" class="rowlabel">Stack-year FE</text>
  <text x="430" y="568" class="cell">Yes</text><text x="665" y="568" class="cell">Yes</text><text x="900" y="568" class="cell">Yes</text>
  <text x="1110" y="568" class="cell">Yes</text><text x="1345" y="568" class="cell">Yes</text><text x="1580" y="568" class="cell">Yes</text>
  <text x="55" y="596" class="rowlabel">BRI control</text>
  <text x="430" y="596" class="cell">Yes</text><text x="665" y="596" class="cell">Yes</text><text x="900" y="596" class="cell">Abs.</text>
  <text x="1110" y="596" class="cell">Yes</text><text x="1345" y="596" class="cell">Yes</text><text x="1580" y="596" class="cell">Abs.</text>
  <text x="55" y="624" class="rowlabel">Direct-sector FDI control</text>
  <text x="430" y="624" class="cell">No</text><text x="665" y="624" class="cell">Yes</text><text x="900" y="624" class="cell">No</text>
  <text x="1110" y="624" class="cell">No</text><text x="1345" y="624" class="cell">Yes</text><text x="1580" y="624" class="cell">No</text>
  <text x="55" y="652" class="rowlabel">Direct-sector rows dropped</text>
  <text x="430" y="652" class="cell">No</text><text x="665" y="652" class="cell">No</text><text x="900" y="652" class="cell">Yes</text>
  <text x="1110" y="652" class="cell">No</text><text x="1345" y="652" class="cell">No</text><text x="1580" y="652" class="cell">Yes</text>
  <line x1="40" y1="672" x2="1760" y2="672" class="rule"/>

  <text x="55" y="706" class="note">Notes: The table reports matched stacked DiD estimates. Dependent variables are Greater China import shares, in percentage points. The treatment is the first</text>
  <text x="55" y="730" class="note">high off-diagonal downstream Chinese investment exposure event. Standard errors are clustered by country-sector. * p &lt; 0.10, ** p &lt; 0.05, *** p &lt; 0.01.</text>
</svg>
